<svg width="64" height="64" viewBox="0 0 64 64" fill="none" xmlns="http://www.w3.org/2000/svg">
  <defs>
    <linearGradient id="favGrad" x1="0" y1="0" x2="1" y2="1">
      <stop offset="0%" stop-color="#4CAF50"/>
      <stop offset="100%" stop-color="#2E7D32"/>
    </linearGradient>
  </defs>
  <rect width="64" height="64" rx="14" fill="#FFFFFF"/>
  <g transform="translate(10, 10)">
    <path d="M14 8 L0 16 L6 26 L14 22 L14 44 L36 44 L36 22 L44 26 L50 16 L36 8 L28 8 C28 13 24 16 21 16 C18 16 14 13 14 8 Z" fill="url(#favGrad)" stroke="#1B5E20" stroke-width="0.8"/>
    <path d="M14 8 C14 13 18 16 21 16 C24 16 28 13 28 8" fill="none" stroke="#1B5E20" stroke-width="1.2"/>
    <text x="21" y="36" text-anchor="middle" font-size="14" fill="white" font-weight="bold">★</text>
  </g>
</svg>
