<svg width="220" height="60" viewBox="0 0 220 60" fill="none" xmlns="http://www.w3.org/2000/svg" role="img" aria-label="Polerones Personalizados Santiago">
  <defs>
    <linearGradient id="polGrad" x1="0" y1="0" x2="1" y2="1">
      <stop offset="0%" stop-color="#4CAF50"/>
      <stop offset="100%" stop-color="#2E7D32"/>
    </linearGradient>
  </defs>
  <!-- T-shirt icon (left) -->
  <g transform="translate(6, 8)">
    <!-- T-shirt body -->
    <path d="M10 8 L0 14 L4 22 L10 19 L10 44 L34 44 L34 19 L40 22 L44 14 L34 8 L28 8 C28 12 25 14 22 14 C19 14 16 12 16 8 Z" fill="url(#polGrad)" stroke="#1B5E20" stroke-width="0.8"/>
    <!-- Collar -->
    <path d="M16 8 C16 12 19 14 22 14 C25 14 28 12 28 8" fill="none" stroke="#1B5E20" stroke-width="1"/>
    <!-- Star/decoration on shirt -->
    <text x="22" y="33" text-anchor="middle" font-size="12" fill="white" font-weight="bold">★</text>
  </g>
  <!-- Text -->
  <g transform="translate(56, 0)" font-family="'Segoe UI', Arial, sans-serif">
    <text x="0" y="22" font-size="15" font-weight="800" fill="#1B5E20">Polerones</text>
    <text x="0" y="38" font-size="13" font-weight="700" fill="#2E7D32">Personalizados</text>
    <text x="0" y="52" font-size="9" font-weight="600" fill="#6B7280" letter-spacing="1.5">SANTIAGO DE CHILE</text>
    <rect x="0" y="55" width="90" height="2" rx="1" fill="url(#polGrad)"/>
  </g>
</svg>
